<svg width="789" height="246" viewBox="0 0 789 246" fill="none" xmlns="http://www.w3.org/2000/svg">
<path d="M2.00015 160.987L10.8197 172.274L19.6393 132.183L28.459 174.903L37.2787 209.654L46.0984 244L54.918 233.118L63.7378 196.385L72.5575 76.4771L81.377 102.813L90.1967 142.459L99.0164 92.1735L107.836 150.711L116.656 107.101L125.475 132.871L134.295 134.651L143.115 135.784L151.934 121.867L160.754 76.7603L169.574 55.8452L178.393 88.4517L187.213 58.8793L196.033 107.587L204.852 41.4433L213.672 183.399L222.492 172.274L231.311 116.163L240.131 76.558L248.951 68.548L257.77 67.4557L266.59 48.8465L275.41 63.1675L284.229 114.181L293.049 53.3775L301.869 94.8435L310.688 39.016L319.508 43.2638L328.328 107.465L337.147 101.235L345.967 107.829L354.787 77.003L363.606 80.4012L372.426 50.3029L381.246 65.9589L390.065 45.0842L398.885 73.3216L407.705 69.9639L416.524 75.7489L425.344 14.8241L434.164 25.3019L442.983 57.9084L451.803 47.6734L460.623 65.1498L469.442 30.9656L478.262 61.1852L487.082 35.6988L495.901 34.566L504.721 45.4888L513.173 53.1752L521.993 32.5433L530.813 41.8074L539.632 32.6242L548.452 18.3842L557.272 59.3648L566.091 42.5761L574.911 46.2979L583.731 56.3307L592.55 26.5156L601.37 112.563L610.19 118.065L619.009 100.224L627.829 82.1812L636.649 47.4306L645.468 88.1685L654.288 31.5319L663.108 57.0184L671.927 150.711L680.747 143.875L689.567 64.5025L698.386 52.7706L707.206 27.7292L716.026 106.656L724.845 108.436L733.665 82.788L742.485 21.5396L751.304 51.5975L760.124 84.2849L768.944 58.677L777.763 11.5878L786.583 2" stroke="#EA580C" stroke-width="4" stroke-linejoin="round"/>
<path d="M1.99998 176.841L11.7781 172.433L18.876 158.313L28.4588 185.116L37.2786 211.275L46.0982 219.995L54.9179 213.654L63.7376 193.043L72.5573 120.114L81.3768 118.667L90.1965 158.313L99.0162 144.688L107.836 159.84L116.656 130.035L125.475 132.017L134.295 141.517H143.115L151.934 132.017L160.754 106.638L169.574 89.1759L178.393 98.5967L187.213 100.296L196.033 116.943L204.852 77.5916L213.672 136.761L222.492 125.636L231.311 132.017L240.844 102.931L249.664 94.9205L258.483 84.5615L267.303 75.219L276.123 89.54L284.229 130.035L293.049 83.31L301.869 90.7835L310.688 73.3439L319.508 77.5916L328.328 102.709L337.147 96.4792L345.967 103.073L354.787 92.8573L363.606 96.2555L372.426 75.6697L381.246 81.8132L390.065 70.4511L398.885 89.1759L407.705 92.3314L416.524 98.5967L425.344 47.9772L434.164 57.4897L442.983 83.31L451.803 53.4893L460.623 70.9657L469.442 37.6719L478.262 63.523L487.082 47.1844L495.901 44.1888L504.721 55.1115L513.173 59.1181L521.993 44.9589L530.812 64.7008L539.632 57.6617L548.452 27.3667L557.271 81.0041L566.091 50.4203L574.911 54.8703L583.731 63.5276L592.55 50.4203L601.37 113.189L610.189 130.035L619.009 116.078L627.829 110.698L636.648 69.2318L645.468 72.185L654.288 66.1572L663.108 84.5615L671.927 137.553L680.747 150.237L689.567 100.296L698.386 96.2555L707.206 75.219L716.025 122.511L724.845 124.291L733.665 113.189L742.485 51.9407L751.304 53.5261L760.124 86.2135L768.944 64.7008L777.763 46.8198L789 46.8197" stroke="#0F172A" stroke-opacity="0.5" stroke-width="4" stroke-linejoin="round"/>
</svg>
