<svg width="16" height="17" viewBox="0 0 16 17" fill="none" xmlns="http://www.w3.org/2000/svg">
<path d="M7.99967 13.9089C9.41416 13.9089 10.7707 13.347 11.7709 12.3468C12.7711 11.3466 13.333 9.99009 13.333 8.5756C13.333 7.16111 12.7711 5.80456 11.7709 4.80437C10.7707 3.80417 9.41416 3.24227 7.99967 3.24227C6.58519 3.24227 5.22863 3.80417 4.22844 4.80437C3.22824 5.80456 2.66634 7.16111 2.66634 8.5756C2.66634 9.99009 3.22824 11.3466 4.22844 12.3468C5.22863 13.347 6.58519 13.9089 7.99967 13.9089V13.9089ZM7.99967 15.2423C4.31767 15.2423 1.33301 12.2576 1.33301 8.5756C1.33301 4.8936 4.31767 1.90894 7.99967 1.90894C11.6817 1.90894 14.6663 4.8936 14.6663 8.5756C14.6663 12.2576 11.6817 15.2423 7.99967 15.2423Z" fill="#C084FC"/>
</svg>
