<svg width="27" height="27" viewBox="0 0 27 27" fill="none" xmlns="http://www.w3.org/2000/svg">
<path d="M21.2408 22.1077H5.96199C4.75652 22.1077 3.7793 21.1305 3.7793 19.925V10.1029C3.7793 8.89739 4.75652 7.92017 5.96199 7.92017H21.2408C22.4463 7.92017 23.4235 8.89739 23.4235 10.1029V19.925C23.4235 21.1305 22.4463 22.1077 21.2408 22.1077Z" stroke="white" stroke-width="1.5"/>
<path d="M8.14453 7.92007V4.20949C8.14453 3.84786 8.4377 3.55469 8.79934 3.55469H18.4032C18.7648 3.55469 19.058 3.84786 19.058 4.20949V7.92007" stroke="white" stroke-width="1.5"/>
<path d="M11.418 3.55469V7.92007" stroke="white" stroke-width="1.5"/>
<path d="M13.6006 3.55469V7.92007" stroke="white" stroke-width="1.5"/>
<path d="M18.5125 15.5596C18.2111 15.5596 17.9668 15.3153 17.9668 15.0139C17.9668 14.7126 18.2111 14.4683 18.5125 14.4683C18.8138 14.4683 19.0581 14.7126 19.0581 15.0139C19.0581 15.3153 18.8138 15.5596 18.5125 15.5596Z" fill="white" stroke="white" stroke-width="1.5" stroke-linecap="round" stroke-linejoin="round"/>
</svg>
