<svg width="53" height="53" viewBox="0 0 53 53" fill="none" xmlns="http://www.w3.org/2000/svg">
<g clip-path="url(#clip0_234_854)">
<path d="M34.9592 32.7058C36.5893 32.0671 38.2332 30.6122 38.2332 27.6776C38.2332 23.3123 34.5954 22.2209 32.7765 22.2209C32.7765 20.0382 32.7765 15.6729 26.2284 15.6729C19.6804 15.6729 19.6804 20.0382 19.6804 22.2209C17.8614 22.2209 14.2236 23.3123 14.2236 27.6776C14.2236 30.6122 15.8675 32.0671 17.4977 32.7058" stroke="white" stroke-width="1.5" stroke-linecap="round" stroke-linejoin="round"/>
<path d="M21.4053 34.7578L23.3345 36.6871C25.0394 38.3919 27.8033 38.3919 29.5081 36.6871L29.894 36.3012" stroke="white" stroke-width="1.5" stroke-linecap="round" stroke-linejoin="round"/>
<path d="M21.7911 37.4588L21.4053 34.7578L24.1062 35.1437L21.7911 37.4588Z" stroke="white" stroke-width="1.5" stroke-linecap="round" stroke-linejoin="round"/>
<path d="M30.9184 31.9358L28.9891 30.0066C27.2843 28.3018 24.5203 28.3018 22.8155 30.0066L22.4297 30.3924" stroke="white" stroke-width="1.5" stroke-linecap="round" stroke-linejoin="round"/>
<path d="M30.5328 29.2349L30.9187 31.9358L28.2178 31.5499L30.5328 29.2349Z" stroke="white" stroke-width="1.5" stroke-linecap="round" stroke-linejoin="round"/>
</g>
<defs>
<clipPath id="clip0_234_854">
<rect width="26.1923" height="26.1923" fill="white" transform="translate(13.1318 13.4902)"/>
</clipPath>
</defs>
</svg>
