<svg width="36" height="36" viewBox="0 0 36 36" fill="none" xmlns="http://www.w3.org/2000/svg">
<path d="M28.3765 17.791V11.0426C28.3765 9.55181 27.2021 8.34326 25.7532 8.34326H7.38993C5.9411 8.34326 4.7666 9.55181 4.7666 11.0426V19.1407C4.7666 20.6316 5.9411 21.8401 7.38993 21.8401H16.5716" stroke="white" stroke-width="1.5" stroke-linecap="round" stroke-linejoin="round"/>
<path fill-rule="evenodd" clip-rule="evenodd" d="M28.2182 23.0783C28.8659 23.4882 28.826 24.486 28.1589 24.5639L24.7924 24.9565L23.2824 28.0774C22.9832 28.6958 22.0583 28.3931 21.9054 27.6266L20.2589 19.3719C20.1297 18.7241 20.6955 18.3163 21.2429 18.6629L28.2182 23.0783Z" stroke="white" stroke-width="1.5"/>
<path d="M16.5723 15.1051L16.5854 15.0901" stroke="white" stroke-width="1.5" stroke-linecap="round" stroke-linejoin="round"/>
<path d="M21.8184 15.1051L21.8315 15.0901" stroke="white" stroke-width="1.5" stroke-linecap="round" stroke-linejoin="round"/>
<path d="M11.3252 15.1051L11.3383 15.0901L11.3252 15.1051Z" fill="white"/>
<path d="M11.3252 15.1051L11.3383 15.0901" stroke="white" stroke-width="1.5" stroke-linecap="round" stroke-linejoin="round"/>
</svg>
