<svg width="24" height="25" viewBox="0 0 24 25" fill="none" xmlns="http://www.w3.org/2000/svg">
<path d="M10.7566 12.5001L15.7066 17.4501C15.8021 17.5423 15.8783 17.6526 15.9307 17.7747C15.9831 17.8967 16.0107 18.0279 16.0118 18.1607C16.013 18.2934 15.9877 18.4251 15.9374 18.548C15.8871 18.6709 15.8128 18.7826 15.719 18.8765C15.6251 18.9703 15.5134 19.0446 15.3905 19.0949C15.2676 19.1452 15.1359 19.1705 15.0032 19.1693C14.8704 19.1682 14.7392 19.1406 14.6172 19.0882C14.4952 19.0358 14.3848 18.9596 14.2926 18.8641L8.63556 13.2071C8.44809 13.0195 8.34277 12.7652 8.34277 12.5001C8.34277 12.2349 8.44809 11.9806 8.63556 11.7931L14.2926 6.13606C14.4812 5.9539 14.7338 5.85311 14.996 5.85538C15.2582 5.85766 15.509 5.96283 15.6944 6.14824C15.8798 6.33365 15.985 6.58446 15.9872 6.84666C15.9895 7.10885 15.8887 7.36146 15.7066 7.55006L10.7566 12.5001Z" fill="#94A3B8"/>
</svg>
