<svg width="64" height="65" viewBox="0 0 64 65" fill="none" xmlns="http://www.w3.org/2000/svg">
<path d="M34.6664 32.5758H39.9998C40.707 32.5758 41.3853 32.8568 41.8854 33.3569C42.3855 33.857 42.6664 34.5352 42.6664 35.2425C42.6664 35.9497 42.3855 36.628 41.8854 37.1281C41.3853 37.6282 40.707 37.9091 39.9998 37.9091H31.9998C31.2925 37.9091 30.6143 37.6282 30.1142 37.1281C29.6141 36.628 29.3331 35.9497 29.3331 35.2425V21.9091C29.3331 21.2019 29.6141 20.5236 30.1142 20.0235C30.6143 19.5234 31.2925 19.2425 31.9998 19.2425C32.707 19.2425 33.3853 19.5234 33.8854 20.0235C34.3855 20.5236 34.6664 21.2019 34.6664 21.9091V32.5758ZM55.0131 28.4105C56.0727 31.9908 56.2823 35.7691 55.6252 39.4447C54.9682 43.1203 53.4626 46.5919 51.2281 49.5834C48.9937 52.5749 46.0921 55.0038 42.7541 56.6769C39.416 58.35 35.7336 59.2212 31.9998 59.2212C28.2659 59.2212 24.5835 58.35 21.2455 56.6769C17.9075 55.0038 15.0059 52.5749 12.7714 49.5834C10.537 46.5919 9.03138 43.1203 8.37431 39.4447C7.71724 35.7691 7.92684 31.9908 8.98644 28.4105C7.73283 27.0873 6.76381 25.5212 6.13924 23.8089C5.51468 22.0965 5.24783 20.2743 5.35518 18.4548C5.46253 16.6352 5.9418 14.857 6.76339 13.23C7.58498 11.603 8.73144 10.1617 10.1319 8.99515C11.5324 7.82861 13.1573 6.96161 14.906 6.44769C16.6547 5.93378 18.4903 5.78387 20.2993 6.00723C22.1082 6.23058 23.8522 6.82246 25.4234 7.7463C26.9946 8.67014 28.3597 9.90631 29.4344 11.3785C31.1399 11.1972 32.8597 11.1972 34.5651 11.3785C35.6398 9.90631 37.0049 8.67014 38.5762 7.7463C40.1474 6.82246 41.8913 6.23058 43.7003 6.00723C45.5093 5.78387 47.3448 5.93378 49.0936 6.44769C50.8423 6.96161 52.4671 7.82861 53.8676 8.99515C55.2681 10.1617 56.4146 11.603 57.2362 13.23C58.0578 14.857 58.537 16.6352 58.6444 18.4548C58.7517 20.2743 58.4849 22.0965 57.8603 23.8089C57.2357 25.5212 56.2667 27.0873 55.0131 28.4105V28.4105ZM52.5118 22.7758C53.3061 21.1656 53.5356 19.335 53.1635 17.5785C52.7913 15.822 51.8391 14.2417 50.46 13.092C49.081 11.9422 47.3552 11.2898 45.5604 11.2397C43.7656 11.1896 42.0062 11.7448 40.5651 12.8158C45.5395 14.7229 49.741 18.2257 52.5118 22.7758V22.7758ZM23.4318 12.8158C21.9907 11.7448 20.2313 11.1896 18.4365 11.2397C16.6417 11.2898 14.9159 11.9422 13.5368 13.092C12.1578 14.2417 11.2055 15.822 10.8334 17.5785C10.4612 19.335 10.6908 21.1656 11.4851 22.7758C14.2559 18.2257 18.4574 14.7229 23.4318 12.8158V12.8158ZM31.9998 53.9091C34.4511 53.9091 36.8785 53.4263 39.1432 52.4882C41.4079 51.5501 43.4657 50.1752 45.1991 48.4418C46.9325 46.7084 48.3074 44.6506 49.2455 42.3859C50.1836 40.1212 50.6664 37.6938 50.6664 35.2425C50.6664 32.7911 50.1836 30.3638 49.2455 28.099C48.3074 25.8343 46.9325 23.7765 45.1991 22.0431C43.4657 20.3098 41.4079 18.9348 39.1432 17.9967C36.8785 17.0586 34.4511 16.5758 31.9998 16.5758C27.0491 16.5758 22.3011 18.5425 18.8004 22.0431C15.2998 25.5438 13.3331 30.2918 13.3331 35.2425C13.3331 40.1932 15.2998 44.9411 18.8004 48.4418C22.3011 51.9425 27.0491 53.9091 31.9998 53.9091V53.9091Z" fill="#0F172A"/>
</svg>
