<svg width="24" height="25" viewBox="0 0 24 25" fill="none" xmlns="http://www.w3.org/2000/svg">
<path d="M14.7378 8.47199L5.69976 17.51L5.10876 19.526L7.08376 18.955L16.1518 9.88699L14.7378 8.47199ZM16.2798 6.92999L17.6938 8.34399L19.0118 7.02599C19.1055 6.93223 19.1582 6.80508 19.1582 6.67249C19.1582 6.53991 19.1055 6.41276 19.0118 6.31899L18.3038 5.61199C18.21 5.51826 18.0828 5.4656 17.9503 5.4656C17.8177 5.4656 17.6905 5.51826 17.5968 5.61199L16.2808 6.92999H16.2798ZM19.7188 4.19799L20.4258 4.90499C20.8944 5.37381 21.1577 6.00958 21.1577 6.67249C21.1577 7.3354 20.8944 7.97117 20.4258 8.43999L8.13376 20.733L3.91376 21.953C3.74175 22.0026 3.55958 22.0051 3.38626 21.9603C3.21295 21.9154 3.05485 21.8249 2.92847 21.6981C2.80209 21.5713 2.71206 21.4129 2.66779 21.2395C2.62351 21.066 2.62661 20.8838 2.67676 20.712L3.92476 16.457L16.1848 4.19699C16.6536 3.72832 17.2894 3.46503 17.9523 3.46503C18.6152 3.46503 19.2509 3.72832 19.7198 4.19699L19.7188 4.19799Z" fill="#475569"/>
</svg>
