<svg width="16" height="17" viewBox="0 0 16 17" fill="none" xmlns="http://www.w3.org/2000/svg">
<path d="M7.99967 13.8333C9.41416 13.8333 10.7707 13.2714 11.7709 12.2712C12.7711 11.271 13.333 9.91447 13.333 8.49998C13.333 7.08549 12.7711 5.72894 11.7709 4.72874C10.7707 3.72855 9.41416 3.16665 7.99967 3.16665C6.58519 3.16665 5.22863 3.72855 4.22844 4.72874C3.22824 5.72894 2.66634 7.08549 2.66634 8.49998C2.66634 9.91447 3.22824 11.271 4.22844 12.2712C5.22863 13.2714 6.58519 13.8333 7.99967 13.8333V13.8333ZM7.99967 15.1666C4.31767 15.1666 1.33301 12.182 1.33301 8.49998C1.33301 4.81798 4.31767 1.83331 7.99967 1.83331C11.6817 1.83331 14.6663 4.81798 14.6663 8.49998C14.6663 12.182 11.6817 15.1666 7.99967 15.1666Z" fill="#22C55E"/>
</svg>
